<svg xmlns="http://www.w3.org/2000/svg" width="33.318" height="29.667" viewBox="0 0 33.318 29.667">
  <g id="executed-payment-svgrepo-com" transform="translate(0 -28)">
    <path id="Path_19588" data-name="Path 19588" d="M30.742,28H2.575A2.578,2.578,0,0,0,0,30.575V47.267a2.578,2.578,0,0,0,2.575,2.575H13.008a.489.489,0,1,0,0-.978H2.575a1.6,1.6,0,0,1-1.6-1.6V30.575a1.6,1.6,0,0,1,1.6-1.6H30.742a1.6,1.6,0,0,1,1.6,1.6V47.267a.489.489,0,0,0,.978,0V30.575A2.578,2.578,0,0,0,30.742,28Z" fill="#328128"/>
    <path id="Path_19589" data-name="Path 19589" d="M65.878,292H56.489a.489.489,0,0,0,0,.978h9.389a.489.489,0,0,0,0-.978Z" transform="translate(-52.349 -246.787)" fill="#328128"/>
    <path id="Path_19590" data-name="Path 19590" d="M62.194,103.619v-2.086A1.534,1.534,0,0,0,60.662,100h-3.13A1.534,1.534,0,0,0,56,101.532v2.086a1.534,1.534,0,0,0,1.532,1.532h3.13A1.534,1.534,0,0,0,62.194,103.619Zm-5.216,0v-.554h.554a.489.489,0,0,0,0-.978h-.554v-.554a.555.555,0,0,1,.554-.554h1.076v3.195H57.532A.555.555,0,0,1,56.978,103.619Zm3.684.554H59.586v-3.195h1.076a.555.555,0,0,1,.554.554v.554h-.554a.489.489,0,0,0,0,.978h.554v.554A.555.555,0,0,1,60.662,104.173Z" transform="translate(-52.349 -67.306)" fill="#328128"/>
    <path id="Path_19591" data-name="Path 19591" d="M56,229.532a.489.489,0,0,0,.978,0v-1.043a.489.489,0,0,0-.978,0Z" transform="translate(-52.349 -186.96)" fill="#328128"/>
    <path id="Path_19592" data-name="Path 19592" d="M80,228.489v1.043a.489.489,0,0,0,.978,0v-1.043a.489.489,0,0,0-.978,0Z" transform="translate(-74.784 -186.96)" fill="#328128"/>
    <path id="Path_19593" data-name="Path 19593" d="M104,228.489v1.043a.489.489,0,0,0,.978,0v-1.043a.489.489,0,0,0-.978,0Z" transform="translate(-97.219 -186.96)" fill="#328128"/>
    <path id="Path_19594" data-name="Path 19594" d="M128,228.489v1.043a.489.489,0,0,0,.978,0v-1.043a.489.489,0,0,0-.978,0Z" transform="translate(-119.654 -186.96)" fill="#328128"/>
    <path id="Path_19595" data-name="Path 19595" d="M160.978,229.532v-1.043a.489.489,0,0,0-.978,0v1.043a.489.489,0,0,0,.978,0Z" transform="translate(-149.568 -186.96)" fill="#328128"/>
    <path id="Path_19596" data-name="Path 19596" d="M184.978,229.532v-1.043a.489.489,0,0,0-.978,0v1.043a.489.489,0,0,0,.978,0Z" transform="translate(-172.003 -186.96)" fill="#328128"/>
    <path id="Path_19597" data-name="Path 19597" d="M208.489,228a.489.489,0,0,0-.489.489v1.043a.489.489,0,0,0,.978,0v-1.043A.489.489,0,0,0,208.489,228Z" transform="translate(-194.438 -186.96)" fill="#328128"/>
    <path id="Path_19598" data-name="Path 19598" d="M232.978,229.532v-1.043a.489.489,0,0,0-.978,0v1.043a.489.489,0,0,0,.978,0Z" transform="translate(-216.873 -186.96)" fill="#328128"/>
    <path id="Path_19599" data-name="Path 19599" d="M333.705,105.151a2.575,2.575,0,0,0,0-5.151h-3.13a2.575,2.575,0,0,0,0,5.151Zm-4.727-2.575a1.6,1.6,0,0,1,1.6-1.6h3.13a1.6,1.6,0,0,1,0,3.195h-3.13A1.6,1.6,0,0,1,328.978,102.575Z" transform="translate(-306.614 -67.306)" fill="#328128"/>
    <path id="Path_19600" data-name="Path 19600" d="M232.313,228a8.313,8.313,0,1,0,8.313,8.313A8.323,8.323,0,0,0,232.313,228Zm0,15.648a7.335,7.335,0,1,1,7.335-7.335A7.343,7.343,0,0,1,232.313,243.648Z" transform="translate(-209.395 -186.96)" fill="#328128"/>
    <path id="Path_19601" data-name="Path 19601" d="M281.532,308.143l-5.914,5.914-2.784-2.784a.489.489,0,0,0-.692.692l3.13,3.13a.489.489,0,0,0,.692,0l6.259-6.259a.489.489,0,0,0-.692-.692Z" transform="translate(-254.266 -261.744)" fill="#328128"/>
  </g>
</svg>
