<svg id="credit_cardd" data-name="credit cardd" xmlns="http://www.w3.org/2000/svg" width="25" height="25" viewBox="0 0 38.788 25.881">
  <path id="Path_19699" data-name="Path 19699" d="M0,3.544A10.1,10.1,0,0,1,.772,1.718,3.923,3.923,0,0,1,4.249,0Q9.476.006,14.7,0q9.9,0,19.807,0A4.03,4.03,0,0,1,38.57,2.795a4.5,4.5,0,0,1,.207,1.337q.02,8.808.007,17.614a4.038,4.038,0,0,1-4.16,4.128c-1.944.014-3.889,0-5.832,0H4.288A4.078,4.078,0,0,1,.2,23.061c-.078-.238-.133-.484-.2-.726Q0,12.938,0,3.544Zm1.61,7.8v.41q0,4.943,0,9.886a2.428,2.428,0,0,0,2.6,2.608q15.185,0,30.371,0a2.426,2.426,0,0,0,2.6-2.611q0-4.943,0-9.886c0-.133-.012-.265-.018-.408H1.61Zm.049-1.676H37.12V6.506H1.658ZM37.177,4.83V4.262a2.431,2.431,0,0,0-2.613-2.631q-15.185,0-30.37,0a2.519,2.519,0,0,0-2.533,3.2Z" transform="translate(0 0)" fill="#328128"/>
  <path id="Path_19700" data-name="Path 19700" d="M277.977,146.972c0,.341.027.684-.005,1.022a2.345,2.345,0,0,1-2.072,2.131,11.533,11.533,0,0,1-2.227.011,2.343,2.343,0,0,1-2.14-2.381c-.012-.542-.011-1.086,0-1.628a2.351,2.351,0,0,1,2.171-2.393,11.375,11.375,0,0,1,2.227.021,2.354,2.354,0,0,1,2.053,2.308c.009.3,0,.606,0,.909Zm-3.22,1.571v0c.253,0,.5.006.757,0a.793.793,0,0,0,.855-.815c.022-.529.022-1.061,0-1.591a.778.778,0,0,0-.822-.806c-.542-.013-1.086-.014-1.628,0a.763.763,0,0,0-.774.771c-.018.554-.018,1.111,0,1.667a.772.772,0,0,0,.778.768c.277.014.555,0,.833,0Z" transform="translate(-244.049 -129.151)" fill="#328128"/>
  <path id="Path_19701" data-name="Path 19701" d="M53.577,193.326q-2.289,0-4.579,0a1.906,1.906,0,0,1-.486-.052.793.793,0,0,1-.008-1.521,1.513,1.513,0,0,1,.41-.053q4.673,0,9.347,0c.584,0,.935.271.973.734.045.531-.316.888-.927.892-1.211.007-2.421,0-3.633,0Z" transform="translate(-43.089 -172.299)" fill="#328128"/>
  <path id="Path_19702" data-name="Path 19702" d="M53.651,159.862c1.551,0,3.1,0,4.654,0a.88.88,0,0,1,.823.362.8.8,0,0,1-.645,1.245c-.3.02-.605.006-.908.006H49.063c-.113,0-.228.006-.34,0a.812.812,0,0,1-.766-.828.782.782,0,0,1,.777-.769c.605-.017,1.21-.008,1.816-.008h3.1Z" transform="translate(-43.104 -143.684)" fill="#328128"/>
</svg>
