<svg xmlns="http://www.w3.org/2000/svg" width="16.391" height="10.937" viewBox="0 0 16.391 10.937">
  <g id="credit_cardd" data-name="credit cardd" opacity="0.39">
    <path id="Path_19714" data-name="Path 19714" d="M0,1.5A4.267,4.267,0,0,1,.326.726,1.658,1.658,0,0,1,1.8,0Q4,0,6.213,0h8.37A1.7,1.7,0,0,1,16.3,1.181a1.9,1.9,0,0,1,.088.565q.008,3.722,0,7.443a1.706,1.706,0,0,1-1.758,1.745c-.821.006-1.643,0-2.465,0H1.812A1.723,1.723,0,0,1,.084,9.745c-.033-.1-.056-.2-.084-.307Q0,5.467,0,1.5Zm.68,3.3v.173q0,2.089,0,4.177a1.026,1.026,0,0,0,1.1,1.1H14.612a1.025,1.025,0,0,0,1.1-1.1q0-2.089,0-4.177c0-.056-.005-.112-.008-.172H.68ZM.7,4.085H15.686V2.749H.7ZM15.71,2.041V1.8a1.027,1.027,0,0,0-1.1-1.112q-6.417,0-12.833,0A1.065,1.065,0,0,0,.7,2.041Z" transform="translate(0 0)"/>
    <path id="Path_19715" data-name="Path 19715" d="M274.251,145.077c0,.144.012.289,0,.432a.991.991,0,0,1-.876.9,4.874,4.874,0,0,1-.941,0,.99.99,0,0,1-.9-1.006c-.005-.229,0-.459,0-.688a.993.993,0,0,1,.918-1.011,4.807,4.807,0,0,1,.941.009.994.994,0,0,1,.868.975c0,.128,0,.256,0,.384Zm-1.361.664h0c.107,0,.213,0,.32,0a.335.335,0,0,0,.361-.344c.009-.224.009-.449,0-.672a.329.329,0,0,0-.347-.341c-.229-.006-.459-.006-.688,0a.323.323,0,0,0-.327.326c-.008.234-.008.469,0,.7a.326.326,0,0,0,.329.325c.117.006.235,0,.352,0Z" transform="translate(-259.914 -137.546)"/>
    <path id="Path_19716" data-name="Path 19716" d="M50.322,192.385H48.387a.8.8,0,0,1-.205-.022.335.335,0,0,1,0-.643.64.64,0,0,1,.173-.022q1.975,0,3.95,0c.247,0,.4.115.411.31.019.224-.133.375-.392.377-.512,0-1.023,0-1.535,0h-.464Z" transform="translate(-45.89 -183.5)"/>
    <path id="Path_19717" data-name="Path 19717" d="M50.363,159.861c.655,0,1.311,0,1.966,0a.372.372,0,0,1,.348.153.339.339,0,0,1-.272.526c-.127.009-.256,0-.384,0h-3.6c-.048,0-.1,0-.144,0a.343.343,0,0,1-.324-.35.33.33,0,0,1,.328-.325c.256-.007.511,0,.768,0h1.311Z" transform="translate(-45.906 -153.025)"/>
  </g>
</svg>
