<svg xmlns="http://www.w3.org/2000/svg" width="11.529" height="14.197" viewBox="0 0 11.529 14.197">
  <g id="delete" transform="translate(0.001 -0.036)">
    <path id="Path_19724" data-name="Path 19724" d="M1420.492,265.613c-.092-.025-.185-.048-.276-.076a1.734,1.734,0,0,1-1.189-1.594c0-.078,0-.157,0-.235q0-3.949,0-7.9a.2.2,0,0,0-.156-.224,1.264,1.264,0,0,1-.782-1.317,1.24,1.24,0,0,1,1.124-1.1c.566-.027,1.136-.016,1.7-.022h.123c.008-.183.013-.362.026-.539a1.292,1.292,0,0,1,1.29-1.184c.993-.007,1.987-.013,2.98,0a1.3,1.3,0,0,1,1.3,1.365c0,.111,0,.221,0,.35.055,0,.1.007.152.007.494,0,.989,0,1.483,0a1.267,1.267,0,0,1,.553,2.434.211.211,0,0,0-.162.235q.007,3.962,0,7.925a1.862,1.862,0,0,1-.563,1.425,1.6,1.6,0,0,1-.828.419.529.529,0,0,0-.074.027Zm-.8-9.93v8.073a1.87,1.87,0,0,0,.023.3,1.012,1.012,0,0,0,1,.887q3.133.007,6.265,0a.953.953,0,0,0,.812-.427,1.282,1.282,0,0,0,.214-.774v-7.913c0-.049,0-.1-.007-.15Zm4.159-.673h4.351a1.962,1.962,0,0,0,.207-.009.583.583,0,0,0,.526-.634c-.029-.351-.284-.555-.7-.555h-8.771a1.349,1.349,0,0,0-.207.015.592.592,0,0,0-.061,1.159,1.262,1.262,0,0,0,.289.024Q1421.665,255.011,1423.847,255.009Zm2.114-1.871a4.559,4.559,0,0,0,0-.5.6.6,0,0,0-.46-.529.727.727,0,0,0-.2-.027q-1.448,0-2.9,0a.619.619,0,0,0-.66.512,3.509,3.509,0,0,0-.005.541Z" transform="translate(-1418.08 -251.38)" fill="red"/>
    <path id="Path_19725" data-name="Path 19725" d="M1522.9,409.662q0,1.53,0,3.061a.612.612,0,0,1-.067.275.28.28,0,0,1-.308.138.308.308,0,0,1-.266-.23.643.643,0,0,1-.022-.164v-6.136a.542.542,0,0,1,.045-.227.324.324,0,0,1,.6.058.768.768,0,0,1,.02.205Q1522.9,408.151,1522.9,409.662Z" transform="translate(-1518.77 -401.015)" fill="red"/>
    <path id="Path_19726" data-name="Path 19726" d="M1581.268,409.572v-3.061c0-.24.1-.38.294-.4a.313.313,0,0,1,.354.257.757.757,0,0,1,.017.164v6.08a.8.8,0,0,1-.018.178.323.323,0,0,1-.319.255.327.327,0,0,1-.315-.262.9.9,0,0,1-.012-.179Q1581.267,411.088,1581.268,409.572Z" transform="translate(-1575.835 -400.92)" fill="red"/>
    <path id="Path_19727" data-name="Path 19727" d="M1640.2,409.583V406.55c0-.287.111-.438.324-.442s.341.155.341.443V412.6c0,.288-.125.449-.342.443s-.323-.156-.323-.444Q1640.195,411.093,1640.2,409.583Z" transform="translate(-1632.8 -400.921)" fill="red"/>
  </g>
</svg>
