<svg xmlns="http://www.w3.org/2000/svg" width="33.654" height="33.64" viewBox="0 0 33.654 33.64">
  <g id="direct_debit" data-name="direct debit" transform="translate(0.001)">
    <path id="Path_15756" data-name="Path 15756" d="M13.745,0H16.57A1.351,1.351,0,0,1,17.4,1.507c-.02.234,0,.471,0,.7h2.248c0-.179,0-.331,0-.484A1.084,1.084,0,0,1,20.361.654,1.086,1.086,0,0,1,21.6.906c1.107,1.106,2.213,2.214,3.306,3.335a1.1,1.1,0,0,1,.014,1.6C23.817,6.975,22.7,8.1,21.57,9.217a1.055,1.055,0,0,1-1.217.221,1.086,1.086,0,0,1-.707-1.016c-.008-.181,0-.363,0-.558H17.418v4.475h2.3q5.8,0,11.591,0a2.208,2.208,0,0,1,2.282,1.739.59.59,0,0,0,.059.111V31.734c-.564,1.527-1.111,1.906-2.759,1.906H2.481A2.261,2.261,0,0,1,.014,31.17c0-5.453.02-10.906-.014-16.359a2.38,2.38,0,0,1,2.474-2.485c3.339.045,6.679.014,10.019.014h.39V7.847h-.377c-.952,0-1.906.005-2.858,0A1.12,1.12,0,0,1,8.424,6.619q0-1.56,0-3.12A1.138,1.138,0,0,1,9.686,2.24c.952,0,1.906,0,2.858,0h.36c.02-.88-.216-1.813.842-2.239Zm3.084,13.461H2.476c-.935,0-1.345.407-1.345,1.335V31.185c0,.92.42,1.336,1.351,1.336h28.7c.924,0,1.345-.42,1.345-1.342V14.823c0-.957-.4-1.361-1.352-1.361H16.828ZM20.763,1.646v.9c0,.655-.16.815-.813.815H9.562V6.724H19.92c.69,0,.844.156.844.857v.687l3.312-3.23L20.764,1.647ZM16.247,12.323V7.871h-2.2v4.452Zm.006-11.178h-2.21V2.221h2.21V1.145Z" transform="translate(0)" fill="#328128"/>
    <path id="Path_15757" data-name="Path 15757" d="M35.461,172.82c-.722,0-1.444.005-2.166,0a1.092,1.092,0,0,1-1.167-1.174q-.009-2.183,0-4.366a1.1,1.1,0,0,1,1.2-1.176q2.166-.005,4.333,0a1.105,1.105,0,0,1,1.187,1.191q.005,2.166,0,4.333a1.1,1.1,0,0,1-1.185,1.192c-.733.006-1.466,0-2.2,0Zm-2.2-3.916h1.045a.562.562,0,0,1,.56.327.553.553,0,0,1-.51.787c-.356.022-.715,0-1.086,0v1.654h4.438v-1.65c-.342,0-.668.005-.993,0-.415-.008-.667-.226-.668-.564s.248-.55.668-.557c.326-.005.651,0,.992,0v-1.664H33.264Z" transform="translate(-29.305 -151.521)" fill="#328128"/>
    <path id="Path_15758" data-name="Path 15758" d="M272.088,307.149a2.292,2.292,0,0,1,2.994.166,2.237,2.237,0,0,1-2.745,3.5.359.359,0,0,0-.458-.018,2.2,2.2,0,0,1-2.879-.426,2.236,2.236,0,0,1,2.911-3.335c.055.035.109.073.176.118Zm-1.38.645a1.105,1.105,0,0,0-1.124,1.114,1.119,1.119,0,0,0,2.237.015A1.114,1.114,0,0,0,270.708,307.794Zm2.75,0a1.839,1.839,0,0,0-.267.04c-.361.1-.362.171-.322.547a4.167,4.167,0,0,1-.03,1.13c-.041.24.016.333.213.417a1.114,1.114,0,0,0,1.217-.209,1.115,1.115,0,0,0-.813-1.927Z" transform="translate(-244.897 -279.752)" fill="#328128"/>
    <path id="Path_15759" data-name="Path 15759" d="M38.4,306.646h5.322a2.232,2.232,0,0,1,.36.015.5.5,0,0,1,.453.485.507.507,0,0,1-.378.578,1.336,1.336,0,0,1-.389.042q-5.388,0-10.774,0a1.3,1.3,0,0,1-.388-.043.548.548,0,0,1,.081-1.062,2.345,2.345,0,0,1,.361-.015H38.4Z" transform="translate(-29.4 -279.729)" fill="#328128"/>
    <path id="Path_15760" data-name="Path 15760" d="M253.83,173.542h-3.642a2.233,2.233,0,0,1-.36-.017.513.513,0,0,1-.466-.509.528.528,0,0,1,.434-.571,1.548,1.548,0,0,1,.326-.025q3.723,0,7.447,0a1.305,1.305,0,0,1,.293.022.518.518,0,0,1,.449.557.513.513,0,0,1-.48.528c-.239.024-.48.016-.721.016Z" transform="translate(-227.473 -157.284)" fill="#328128"/>
    <path id="Path_15761" data-name="Path 15761" d="M34.987,339.585c-.7,0-1.4,0-2.1,0-.435,0-.664-.2-.668-.548s.235-.569.654-.57q2.133-.007,4.265,0c.414,0,.67.22.674.556s-.244.559-.661.562c-.722,0-1.444,0-2.165,0Z" transform="translate(-29.392 -308.754)" fill="#328128"/>
    <path id="Path_15762" data-name="Path 15762" d="M33.879,275.781c-.36,0-.72.007-1.08,0a.558.558,0,1,1,.005-1.114q1.08-.011,2.16,0a.565.565,0,0,1,.6.558.573.573,0,0,1-.606.556C34.6,275.787,34.239,275.781,33.879,275.781Z" transform="translate(-29.383 -250.552)" fill="#328128"/>
    <path id="Path_15763" data-name="Path 15763" d="M84.926,274.662c.36,0,.72-.007,1.08,0a.557.557,0,1,1,.014,1.113q-1.1.014-2.193,0a.558.558,0,1,1,.018-1.114c.36-.007.72,0,1.08,0Z" transform="translate(-75.933 -250.552)" fill="#328128"/>
    <path id="Path_15764" data-name="Path 15764" d="M135.953,275.783c-.349,0-.7.005-1.047,0a.561.561,0,1,1,0-1.116q1.064-.008,2.127,0a.545.545,0,0,1,.609.54.551.551,0,0,1-.608.576C136.672,275.788,136.313,275.783,135.953,275.783Z" transform="translate(-122.5 -250.553)" fill="#328128"/>
    <path id="Path_15765" data-name="Path 15765" d="M187.17,274.668c.349,0,.7-.005,1.047,0a.56.56,0,1,1,0,1.115q-1.064.009-2.127,0a.56.56,0,1,1,.005-1.116c.36-.006.72,0,1.08,0Z" transform="translate(-169.197 -250.557)" fill="#328128"/>
    <path id="Path_15766" data-name="Path 15766" d="M238.3,274.67c.349,0,.7-.005,1.047,0a.561.561,0,1,1-.011,1.116q-1.064.009-2.127,0a.548.548,0,0,1-.6-.548c-.006-.342.226-.557.614-.569h1.08Z" transform="translate(-215.841 -250.559)" fill="#328128"/>
  </g>
</svg>
