<svg xmlns="http://www.w3.org/2000/svg" xmlns:xlink="http://www.w3.org/1999/xlink" width="80" height="80" viewBox="0 0 80 80">
  <defs>
    <filter id="Ellipse_247" x="0" y="0" width="80" height="80" filterUnits="userSpaceOnUse">
      <feOffset input="SourceAlpha"/>
      <feGaussianBlur stdDeviation="5" result="blur"/>
      <feFlood flood-opacity="0.259"/>
      <feComposite operator="in" in2="blur"/>
      <feComposite in="SourceGraphic"/>
    </filter>
  </defs>
  <g id="Group_7050" data-name="Group 7050" transform="translate(15.121 15.485)">
    <g transform="matrix(1, 0, 0, 1, -15.12, -15.49)" filter="url(#Ellipse_247)">
      <circle id="Ellipse_247-2" data-name="Ellipse 247" cx="25" cy="25" r="25" transform="translate(15 15)" fill="#328128"/>
    </g>
    <g id="editing" transform="translate(12.392 14.228)">
      <path id="Path_19711" data-name="Path 19711" d="M-221.746,85.778a2.667,2.667,0,0,1-.836,1.285c-.678.657-1.339,1.333-2.007,2-.063.063-.126.123-.176.169l-5.085-5.086c.028-.03.08-.087.135-.142q.958-.96,1.917-1.917a2.254,2.254,0,0,1,3.36,0c.623.62,1.236,1.251,1.868,1.862a2.533,2.533,0,0,1,.822,1.292Z" transform="translate(246.761 -81.336)" fill="#fff"/>
      <path id="Path_19712" data-name="Path 19712" d="M-449.316,166.09l-5.024-5.014,12.849-12.836,5.014,5.016Z" transform="translate(457.056 -144.01)" fill="#fff"/>
      <path id="Path_19713" data-name="Path 19713" d="M-496.022,373.72l5.051,5.045c-.478.118-.963.24-1.45.358l-4.008.97c-.638.154-.972-.16-.832-.8Q-496.644,376.509-496.022,373.72Z" transform="translate(497.292 -355.232)" fill="#fff"/>
    </g>
  </g>
</svg>
