<svg xmlns="http://www.w3.org/2000/svg" width="25" height="25" viewBox="0 0 58.544 51.492">
  <path id="esign" d="M37.42,33.065c.082,2.078-.018,4.162.023,6.241a2.169,2.169,0,0,1-.779,1.768,6.169,6.169,0,0,1-8.547.2,2.153,2.153,0,0,0-2.535-.392c-7.611,2.681-15.239,5.3-22.844,7.985-1.007.357-1.235.187-1.235-.861q.044-22.6.006-45.184C1.5,1.773,1.855,1.527,2.838,1.527q16.632.044,33.265-.006c1.147,0,1.347.41,1.341,1.44-.041,6.053-.023,12.107-.023,18.16v1.721a2.288,2.288,0,0,0,1.528-2.435q-.07-9.449.006-18.886C38.966.292,38.591,0,37.4,0Q19.462.069,1.527,0C.3-.007,0,.35,0,1.544Q.057,25.878,0,50.212c-.006,1.2.3,1.434,1.446,1.194,9.314-1.961,18.646-3.829,27.885-6.118,2.617-.65,5.316-1.118,7.628-2.646.849-.568,1.868-1.165,1.9-2.254.105-3.15.035-6.305.035-9.56a2.082,2.082,0,0,0-1.475,2.236ZM9.448,48.462c-.047-.07-.1-.141-.146-.2q5.208-1.914,10.427-3.835c1.944-.714,3.9-1.388,5.825-2.154a1.839,1.839,0,0,1,2.307.334,9.638,9.638,0,0,0,1.926,1.177C22.878,45.371,16.163,46.916,9.448,48.462ZM58.227,11.339c-.4-.8-.615-1.616-1.475-1.973A2.033,2.033,0,0,0,54.533,10c-3.63,3.2-7.295,6.346-10.919,9.549a33.372,33.372,0,0,0-4.04,3.677,4.826,4.826,0,0,1,2.594,2.886c2.008-1.733,4.01-3.478,6.03-5.2.211-.176.591-.726.732-.345.463,1.247.907.24,1.183.006,2.254-1.9,4.473-3.841,6.68-5.8,1.007-.9,2.377-1.557,1.434-3.437h0ZM32.309,8.377Q19.453,8.359,6.6,8.371c-.65,0-1.376-.2-1.341.937.029,1.06.72.831,1.3.831,4.309.012,8.618.006,12.927.006s8.518.006,12.78-.006c.6-.006,1.4.31,1.417-.861S32.93,8.377,32.309,8.377Zm.164,7.019q-13,.009-25.982,0c-.656,0-1.235-.064-1.229.931.006,1.042.679.861,1.282.861,4.3.012,8.612.006,12.915.006s8.612.006,12.921-.006c.58,0,1.288.222,1.306-.843C33.7,15.373,33.146,15.4,32.473,15.4Zm1.206,8.085c.029-1.142-.732-.925-1.37-.925q-12.848-.009-25.689,0c-.644,0-1.388-.2-1.352.931.035,1.165.837.849,1.44.855,4.209.018,8.419.006,12.628.006s8.606.012,12.915-.006c.609-.006,1.405.293,1.428-.861Zm5.854-.222c-2.617,1.873-4.877,4.168-7.336,6.229-2.266,1.891-2.231,1.891-.193,4.139.527.58.843.7,1.481.129,2.857-2.564,5.761-5.082,8.647-7.617A3.864,3.864,0,0,1,39.534,23.259Zm2.6,2.88a.171.171,0,0,0,.053.012l-.018-.041h0l-.035.029Zm-2.6-2.933.035.023.006-.006-.053-.023a.208.208,0,0,0,.012.059l.035-.029-.035-.023h0ZM26.613,37.977c-1-.17-1.382.79-2.154.984-.258.328-.521.656-.784.978,2.19-.948,5.088-.615,6.194-3.46a1.043,1.043,0,0,1,.521-.492c1.077-.55,1.019-1.165.164-1.885a3.782,3.782,0,0,1-.662-.767c-.451-.656-.831-.96-1.481-.123A2.855,2.855,0,0,1,26.3,34.353a.863.863,0,0,0-.784.539c-.744,1.493-1.5,2.98-2.365,4.672.574-.316.907-.5,1.241-.685.31-.685,1.329-.925,1.106-1.991-.088-.416.433-.714.931-.673a.87.87,0,0,1,.861.82c.053.5-.258,1.007-.673.943h0ZM7.867,37.356q3.416-1.142,6.85-2.236a1.932,1.932,0,0,0,1.417-2.734c-3.021.943-6.042,1.9-9.069,2.828-.755.234-1.13.568-.855,1.452.3.978.872.954,1.657.691h0Zm8.266-4.976v.006l.006-.006ZM5.145,32.4a7.908,7.908,0,0,0-1.019.246A17.623,17.623,0,0,0,5.5,34.212c.3.269.059,1,.726.9s.544-.726.667-1.153a4.536,4.536,0,0,1,5.14-3.466,4.239,4.239,0,0,1,2.634,1.388c.2.222.422.427.749.263.2-.1.5-.193.369-.509-.351-.831.17-1.721-.234-2.728-1.985,1.464-3.36.825-4.1-1.493-.258.3-.357.392-.433.5-1.194,1.9-1.206,1.944-3.308,1.253-1.071-.351-.8.4-.72.82.3,1.54-.316,2.3-1.844,2.418h0Zm12.318,5.216a5.06,5.06,0,0,0,1.066-.31,12.046,12.046,0,0,0-1.288-1.458c-.334-.275-.1-1-.708-.937-.7.076-.644.761-.784,1.241a4.5,4.5,0,0,1-4.783,3.372,4.417,4.417,0,0,1-2.939-1.393c-.211-.211-.416-.422-.744-.222-.193.117-.457.187-.334.527.287.808-.246,1.692.24,2.67,2.072-1.692,3.3-.615,4.122,1.54a9,9,0,0,0,.556-.884c.591-1.428,1.481-1.944,2.921-1.054,1,.609,1.042-.07.913-.779-.252-1.434.24-2.236,1.762-2.313h0Zm-1.329-5.24Zm.972,1.844a4.517,4.517,0,0,0,1.323-1.616c-.814-.164-1.516-.544-2.289-.228C16.971,32.672,16.725,33.556,17.105,34.224Zm15.14.445a21.592,21.592,0,0,0-2.611-2.951L29.347,32l2.588,2.968Z" transform="translate(0.001 0.001)" fill="#328128"/>
</svg>
