<svg id="executed-payment-svgrepo-com" xmlns="http://www.w3.org/2000/svg" width="25" height="25" viewBox="0 0 40.805 36.333">
  <path id="Path_19504" data-name="Path 19504" d="M37.651,28H3.154A3.158,3.158,0,0,0,0,31.154V51.6a3.158,3.158,0,0,0,3.154,3.154H15.931a.6.6,0,1,0,0-1.2H3.154A1.959,1.959,0,0,1,1.2,51.6V31.154A1.959,1.959,0,0,1,3.154,29.2h34.5a1.959,1.959,0,0,1,1.956,1.956V51.6a.6.6,0,0,0,1.2,0V31.154A3.158,3.158,0,0,0,37.651,28Z" transform="translate(0 -28)" fill="#fff"/>
  <path id="Path_19505" data-name="Path 19505" d="M68.1,292H56.6a.6.6,0,1,0,0,1.2H68.1a.6.6,0,1,0,0-1.2Z" transform="translate(-51.528 -270.919)" fill="#fff"/>
  <path id="Path_19506" data-name="Path 19506" d="M63.586,104.432v-2.555A1.879,1.879,0,0,0,61.71,100H57.877A1.879,1.879,0,0,0,56,101.877v2.555a1.879,1.879,0,0,0,1.877,1.877H61.71A1.879,1.879,0,0,0,63.586,104.432Zm-6.388,0v-.679h.679a.6.6,0,1,0,0-1.2H57.2v-.679a.68.68,0,0,1,.679-.679h1.318v3.913H57.877A.68.68,0,0,1,57.2,104.432Zm4.512.679H60.392V101.2H61.71a.68.68,0,0,1,.679.679v.679H61.71a.6.6,0,1,0,0,1.2h.679v.679A.68.68,0,0,1,61.71,105.111Z" transform="translate(-51.528 -94.251)" fill="#fff"/>
  <path id="Path_19507" data-name="Path 19507" d="M56,229.877a.6.6,0,0,0,1.2,0V228.6a.6.6,0,1,0-1.2,0Z" transform="translate(-51.528 -212.029)" fill="#fff"/>
  <path id="Path_19508" data-name="Path 19508" d="M80,228.6v1.278a.6.6,0,0,0,1.2,0V228.6a.6.6,0,1,0-1.2,0Z" transform="translate(-73.612 -212.029)" fill="#fff"/>
  <path id="Path_19509" data-name="Path 19509" d="M104,228.6v1.278a.6.6,0,0,0,1.2,0V228.6a.6.6,0,1,0-1.2,0Z" transform="translate(-95.695 -212.029)" fill="#fff"/>
  <path id="Path_19510" data-name="Path 19510" d="M128,228.6v1.278a.6.6,0,0,0,1.2,0V228.6a.6.6,0,0,0-1.2,0Z" transform="translate(-117.779 -212.029)" fill="#fff"/>
  <path id="Path_19511" data-name="Path 19511" d="M161.2,229.877V228.6a.6.6,0,1,0-1.2,0v1.278a.6.6,0,0,0,1.2,0Z" transform="translate(-147.223 -212.029)" fill="#fff"/>
  <path id="Path_19512" data-name="Path 19512" d="M185.2,229.877V228.6a.6.6,0,1,0-1.2,0v1.278a.6.6,0,0,0,1.2,0Z" transform="translate(-169.307 -212.029)" fill="#fff"/>
  <path id="Path_19513" data-name="Path 19513" d="M208.6,228a.6.6,0,0,0-.6.6v1.278a.6.6,0,1,0,1.2,0V228.6A.6.6,0,0,0,208.6,228Z" transform="translate(-191.39 -212.029)" fill="#fff"/>
  <path id="Path_19514" data-name="Path 19514" d="M233.2,229.877V228.6a.6.6,0,1,0-1.2,0v1.278a.6.6,0,0,0,1.2,0Z" transform="translate(-213.474 -212.029)" fill="#fff"/>
  <path id="Path_19515" data-name="Path 19515" d="M334.987,106.308a3.154,3.154,0,0,0,0-6.308h-3.833a3.154,3.154,0,0,0,0,6.308Zm-5.789-3.154a1.959,1.959,0,0,1,1.956-1.956h3.833a1.956,1.956,0,0,1,0,3.913h-3.833A1.959,1.959,0,0,1,329.2,103.154Z" transform="translate(-301.808 -94.251)" fill="#fff"/>
  <path id="Path_19516" data-name="Path 19516" d="M234.181,228a10.181,10.181,0,1,0,10.181,10.181A10.193,10.193,0,0,0,234.181,228Zm0,19.165a8.984,8.984,0,1,1,8.984-8.984A8.994,8.994,0,0,1,234.181,247.165Z" transform="translate(-206.113 -212.029)" fill="#fff"/>
  <path id="Path_19517" data-name="Path 19517" d="M283.675,308.176l-7.243,7.242-3.409-3.41a.6.6,0,1,0-.847.847l3.833,3.833a.6.6,0,0,0,.847,0l7.666-7.666a.6.6,0,0,0-.847-.847Z" transform="translate(-250.28 -285.641)" fill="#fff"/>
</svg>
