<svg xmlns="http://www.w3.org/2000/svg" width="16" height="14" viewBox="0 0 23.85 24.067">
  <g id="location-new" transform="translate(0)">
    <path id="Path_16000" data-name="Path 16000" d="M-476.6-207h15.228a.9.9,0,0,1,.576.963c-.015,2.123-.007,4.245-.007,6.367v.287c.094-.013.156-.018.217-.029a5.592,5.592,0,0,1,2.194,0,6.041,6.041,0,0,1,4.756,4.223,4.926,4.926,0,0,1,.118,2.914,12.835,12.835,0,0,1-1.074,2.62,43.353,43.353,0,0,1-4.207,6.3.781.781,0,0,1-1.388,0c-.189-.243-.379-.485-.568-.728a.594.594,0,0,0-.048.271.768.768,0,0,1-.879.877h-14.569c-.682,0-.945-.267-.945-.958q0-11.078,0-22.158A.879.879,0,0,1-476.6-207Zm14.293,22.545c0-.582,0-1.151,0-1.721a.447.447,0,0,0-.1-.207c-.3-.467-.615-.926-.907-1.4a18.954,18.954,0,0,1-2.041-4.107c-.1-.311-.171-.632-.261-.97-.4,0-.806,0-1.212,0a.754.754,0,0,1-.808-.76.745.745,0,0,1,.819-.742h1.232l.487-1.6h-.268c-.486,0-.971,0-1.457,0a.755.755,0,0,1-.8-.637.725.725,0,0,1,.713-.858c.814-.014,1.629,0,2.444,0a.374.374,0,0,1,.162.021c.141.073.227.012.321-.092a5.554,5.554,0,0,1,1.488-1.177.335.335,0,0,0,.2-.348q-.009-3.089,0-6.181v-.246h-13.37v21.029H-472v-6.008c0-.615.273-.887.888-.888h4.206c.653,0,.922.272.922.932v5.968Zm2.807-.471a36.071,36.071,0,0,0,4-6.3,6.191,6.191,0,0,0,.589-1.817A4.291,4.291,0,0,0-457-197.265a4.572,4.572,0,0,0-6.52,1.606,3.88,3.88,0,0,0-.475,3.092,10.258,10.258,0,0,0,.679,1.718,35.946,35.946,0,0,0,3.215,5.121c.19.264.387.524.6.805Zm-10.987.462h2.986v-5.37h-2.986Z" transform="translate(477.2 207)" fill="#4a4a4a"/>
    <path id="Path_16001" data-name="Path 16001" d="M-312.79-149.374c-.375,0-.75,0-1.125,0a.743.743,0,0,1-.815-.745.745.745,0,0,1,.809-.755q1.148-.013,2.3,0a.751.751,0,0,1,.789.655.736.736,0,0,1-.485.793,1.245,1.245,0,0,1-.368.05C-312.055-149.37-312.422-149.374-312.79-149.374Z" transform="translate(324.294 154.184)" fill="#4a4a4a"/>
    <path id="Path_16002" data-name="Path 16002" d="M-425.331-98.012c.438,0,.876-.016,1.313.005a.715.715,0,0,1,.655.633.743.743,0,0,1-.46.789.915.915,0,0,1-.32.059c-.782,0-1.563.01-2.345,0a.747.747,0,0,1-.765-.6.732.732,0,0,1,.412-.816,1.2,1.2,0,0,1,.432-.079c.359-.011.719,0,1.078,0Z" transform="translate(430.207 104.442)" fill="#4a4a4a"/>
    <path id="Path_16003" data-name="Path 16003" d="M-425.191,7.665c.383,0,.765,0,1.15,0a.751.751,0,0,1,.788.727.748.748,0,0,1-.772.772q-1.184.016-2.369,0a.74.74,0,0,1-.761-.779.744.744,0,0,1,.791-.72C-425.973,7.661-425.582,7.665-425.191,7.665Z" transform="translate(430.101 4.973)" fill="#4a4a4a"/>
    <path id="Path_16004" data-name="Path 16004" d="M-425.19-45.153c.383,0,.765,0,1.15,0a.752.752,0,0,1,.8.737.749.749,0,0,1-.783.761q-1.173.018-2.345,0a.739.739,0,0,1-.775-.765.736.736,0,0,1,.8-.732C-425.956-45.158-425.574-45.153-425.19-45.153Z" transform="translate(430.088 54.683)" fill="#4a4a4a"/>
    <path id="Path_16005" data-name="Path 16005" d="M-425.281-149.12c-.422,0-.845.013-1.266,0a.717.717,0,0,1-.667-.592.751.751,0,0,1,.391-.807.53.53,0,0,1,.221-.069c.883-.005,1.766-.019,2.649,0a.663.663,0,0,1,.613.562.687.687,0,0,1-.288.759,1.123,1.123,0,0,1-.5.149c-.381.022-.765.007-1.148.007Z" transform="translate(430.169 153.921)" fill="#4a4a4a"/>
    <path id="Path_16006" data-name="Path 16006" d="M-312.762-97.975c.43,0,.86-.014,1.289,0a.7.7,0,0,1,.638.535.718.718,0,0,1-.267.79.664.664,0,0,1-.339.14c-.875.012-1.749.02-2.624,0a.682.682,0,0,1-.633-.622.722.722,0,0,1,.467-.8,1.277,1.277,0,0,1,.391-.055c.359-.008.719,0,1.078,0Z" transform="translate(324.271 104.405)" fill="#4a4a4a"/>
    <path id="Path_16007" data-name="Path 16007" d="M-213.306-14.78a2.319,2.319,0,0,1,2.319,2.283,2.328,2.328,0,0,1-2.3,2.334A2.326,2.326,0,0,1-215.6-12.45,2.316,2.316,0,0,1-213.306-14.78Zm.814,2.3a.794.794,0,0,0-.235-.569.794.794,0,0,0-.57-.23.792.792,0,0,0-.567.234.792.792,0,0,0-.23.569.8.8,0,0,0,.8.8A.806.806,0,0,0-212.491-12.475Z" transform="translate(231 26.095)" fill="#4a4a4a"/>
  </g>
</svg>
