<svg xmlns="http://www.w3.org/2000/svg" width="4.894" height="19.576" viewBox="0 0 4.894 19.576">
  <g id="menuu" transform="translate(0.003 0)" opacity="0.46">
    <path id="Path_19721" data-name="Path 19721" d="M-2241.33-740.18c.091.024.18.051.272.073a2.439,2.439,0,0,1,1.865,2.514,2.437,2.437,0,0,1-2.082,2.276,2.439,2.439,0,0,1-2.77-1.992,2.435,2.435,0,0,1,2.018-2.836.438.438,0,0,0,.085-.035Z" transform="translate(2244.079 740.18)" fill="#fff"/>
    <path id="Path_19722" data-name="Path 19722" d="M-2241.758-596.45a2.446,2.446,0,0,1,2.452,2.437,2.448,2.448,0,0,1-.715,1.738,2.447,2.447,0,0,1-1.737.718A2.448,2.448,0,0,1-2244.2-594a2.447,2.447,0,0,1,2.441-2.446Z" transform="translate(2244.198 603.792)" fill="#fff"/>
    <path id="Path_19723" data-name="Path 19723" d="M-2239.32-450.269a2.447,2.447,0,0,1-2.458,2.43,2.447,2.447,0,0,1-1.732-.73,2.447,2.447,0,0,1-.7-1.743,2.447,2.447,0,0,1,2.467-2.421A2.447,2.447,0,0,1-2239.32-450.269Z" transform="translate(2244.21 467.415)" fill="#fff"/>
  </g>
</svg>
