<svg xmlns="http://www.w3.org/2000/svg" width="15" height="15" viewBox="0 0 12.426 18.378">
  <g id="owner" transform="translate(0)">
    <path id="Path_14951" data-name="Path 14951" d="M2013.729-471.76c.242.058.489.1.726.177a3.541,3.541,0,0,1,2.461,3.317,11.133,11.133,0,0,1-.072,1.841,3.523,3.523,0,0,1-3.45,2.9,3.506,3.506,0,0,1-3.484-2.774,5.719,5.719,0,0,1,.153-3.2,3.455,3.455,0,0,1,2.848-2.232.786.786,0,0,0,.1-.031Z" transform="translate(-2007.112 471.76)" fill="#328128"/>
    <path id="Path_14952" data-name="Path 14952" d="M1944.777-216.085c.1-.408.194-.771.284-1.134q.81-3.279,1.619-6.557c.058-.234.171-.294.395-.2,1.076.455,2.157.909,3.232,1.373a1,1,0,0,1,.64,1.032c-.017,2.1-.007,4.2-.007,6.3,0,.06,0,.12,0,.179a.241.241,0,0,1-.263.255c-.167,0-.334,0-.5,0h-11.253c-.347,0-.4-.055-.4-.408v-6.424a1.041,1.041,0,0,1,.747-1.1q1.563-.6,3.129-1.194c.285-.108.374-.061.448.232q.949,3.779,1.9,7.559C1944.746-216.159,1944.752-216.148,1944.777-216.085Z" transform="translate(-1938.52 233.215)" fill="#328128"/>
    <path id="Path_14953" data-name="Path 14953" d="M2077.969-231.344c.167,0,.334-.009.5,0a.622.622,0,0,1,.5.956c-.569.751-.4.909-.334,1.7a4.1,4.1,0,0,0,.069.551,1.054,1.054,0,0,1-.083.643c-.112.277-.21.557-.311.839a.368.368,0,0,1-.371.279.363.363,0,0,1-.371-.276c-.13-.359-.264-.717-.391-1.077a.522.522,0,0,1-.023-.21c.037-.452.074-.905.129-1.356a1.125,1.125,0,0,0-.184-.783c-.055-.085-.115-.167-.168-.254a.647.647,0,0,1,.513-1.011C2077.621-231.355,2077.8-231.344,2077.969-231.344Z" transform="translate(-2071.693 240.273)" fill="#328128"/>
  </g>
</svg>
