<svg xmlns="http://www.w3.org/2000/svg" width="25" height="25" viewBox="0 0 30.211 29.673">
  <g id="pay-svgrepo-com" transform="translate(0 -4.36)">
    <path id="Path_19518" data-name="Path 19518" d="M155.661,100.36V96.376h1.063a.648.648,0,0,0,0-1.3h-1.063v-.586a.648.648,0,0,0-1.3,0v.651a3.255,3.255,0,0,0,0,6.38v3.984h-1.231a.648.648,0,1,0,0,1.3h1.231v.586a.648.648,0,1,0,1.3,0v-.651a3.255,3.255,0,0,0,0-6.38Zm-2.607-2.025a1.963,1.963,0,0,1,1.312-1.849v3.7A1.963,1.963,0,0,1,153.053,98.336Zm2.607,7.064v-3.7a1.959,1.959,0,0,1,0,3.7Z" transform="translate(-142.397 -83.967)" fill="#328128"/>
    <path id="Path_19519" data-name="Path 19519" d="M29.8,29.092,24.52,23.813l.963-.963a1.488,1.488,0,0,0,.492-1.542,1.438,1.438,0,0,0-1.226-.867A12.61,12.61,0,1,0,16.7,28.914a1.243,1.243,0,0,0,1.172.947,1.639,1.639,0,0,0,1.157-.558l.963-.963L25.27,33.62a1.41,1.41,0,0,0,1.994,0L29.8,31.086A1.412,1.412,0,0,0,29.8,29.092ZM1.3,16.976a11.32,11.32,0,1,1,22.142,3.33l-2.152-.217a9.212,9.212,0,1,0-4.987,5.33l.22,2.186A11.325,11.325,0,0,1,1.3,16.976Zm15.138,3.411a1.99,1.99,0,0,0-.485,1.559l.212,2.107a7.9,7.9,0,1,1,3.79-4.1l-1.826-.184c-.076-.008-.153-.012-.228-.012A1.942,1.942,0,0,0,16.433,20.387Zm1.481,8.2-.678-6.775a.714.714,0,0,1,.157-.56.69.69,0,0,1,.6-.2l6.759.688-1.608,1.608a.648.648,0,0,0,0,.916l5.737,5.737a.115.115,0,0,1,0,.162L26.349,32.7a.115.115,0,0,1-.163,0l-5.737-5.737a.648.648,0,0,0-.916,0Z" transform="translate(0 0)" fill="#328128"/>
  </g>
</svg>
