<svg xmlns="http://www.w3.org/2000/svg" width="24.004" height="16.009" viewBox="0 0 24.004 16.009">
  <g id="paynow" transform="translate(0.02 -0.02)">
    <path id="Path_96" data-name="Path 96" d="M-463.988,233.627a6.493,6.493,0,0,1-.464,1.11,2.425,2.425,0,0,1-2.165,1.082h-18.725a2.5,2.5,0,0,1-2.512-1.728,2.961,2.961,0,0,1-.128-.874q-.012-5.4,0-10.8a2.5,2.5,0,0,1,2.6-2.6c1.468-.006,2.937,0,4.406,0h14.341a2.52,2.52,0,0,1,2.53,1.742c.048.147.082.3.125.449Zm-23-6.8v6.37a1.5,1.5,0,0,0,1.608,1.613h18.794a1.5,1.5,0,0,0,1.606-1.614q0-3.059,0-6.117c0-.081-.007-.163-.012-.251Zm.03-1.037h21.944v-1.956h-21.944Zm21.981-2.992v-.351a1.5,1.5,0,0,0-1.616-1.628h-18.793a1.557,1.557,0,0,0-1.566,1.979Z" transform="translate(487.97 -219.79)" fill="#fff"/>
    <path id="Path_97" data-name="Path 97" d="M-436.57,411.433h2.833a1.3,1.3,0,0,1,.3.027.47.47,0,0,1,.368.478.471.471,0,0,1-.376.474,1.252,1.252,0,0,1-.278.026h-5.69a1.145,1.145,0,0,1-.3-.033.483.483,0,0,1-.349-.473.479.479,0,0,1,.355-.467,1.178,1.178,0,0,1,.3-.032Q-437.985,411.431-436.57,411.433Z" transform="translate(443.042 -399.412)" fill="#fff"/>
    <path id="Path_98" data-name="Path 98" d="M-436.531,379.616h2.809c.078,0,.157,0,.234.006a.477.477,0,0,1,.448.481.492.492,0,0,1-.43.5,1.7,1.7,0,0,1-.234.006h-5.666c-.063,0-.125,0-.188,0a.5.5,0,0,1-.475-.512.487.487,0,0,1,.48-.477c.218-.01.438,0,.656,0Z" transform="translate(443.015 -369.587)" fill="#fff"/>
  </g>
</svg>
