<svg xmlns="http://www.w3.org/2000/svg" width="16" height="14" viewBox="0 0 24.077 24.061">
  <g id="self_storage" data-name="self storage" transform="translate(0)">
    <path id="Path_15995" data-name="Path 15995" d="M46.712-664.507c-.361.387-.71.788-1.09,1.157a.594.594,0,0,1-.9-.017c-.263-.242-.511-.5-.763-.757-.3-.3-.37-.548-.239-.818s.382-.38.83-.315v-9.375c-.067.011-.133.026-.2.032a.588.588,0,0,1-.6-.294.507.507,0,0,1,.013-.63,13.732,13.732,0,0,1,1.106-1.1.515.515,0,0,1,.728.068c.384.379.744.783,1.114,1.176v.37a.718.718,0,0,1-.9.37v9.385c.509-.075.644-.006.9.442Z" transform="translate(-22.635 681.885)" fill="#4a4a4a"/>
    <path id="Path_15996" data-name="Path 15996" d="M-242.915-417.293c-.385-.363-.785-.714-1.151-1.1a.593.593,0,0,1,.02-.9c.247-.263.505-.509.761-.759.3-.3.55-.365.82-.235s.377.384.308.831l9.375.044c-.011-.067-.026-.132-.031-.2a.587.587,0,0,1,.3-.6.507.507,0,0,1,.63.016,13.512,13.512,0,0,1,1.1,1.11.515.515,0,0,1-.072.727c-.381.382-.786.74-1.181,1.11h-.37a.72.72,0,0,1-.367-.9l-9.385-.045c.073.509,0,.645-.447.9Z" transform="translate(247.52 441.301)" fill="#4a4a4a"/>
    <path id="Path_15997" data-name="Path 15997" d="M-277.162-740.431a.468.468,0,0,1-.469.236c-.459-.01-.919,0-1.378,0-.366,0-.474-.107-.474-.473v-8.792h-15.234v8.731c0,.451-.084.534-.531.535H-296.6c-.316,0-.432-.117-.432-.435q0-6.859,0-13.718a.473.473,0,0,1,.3-.45q4.679-2.574,9.352-5.157c.062-.033.116-.075.174-.113h.231a.833.833,0,0,0,.088.068l9.417,5.522a2.324,2.324,0,0,1,.318.271Zm-.661-.435V-753.75a.258.258,0,0,0-.149-.257q-4.494-2.627-8.982-5.265a.276.276,0,0,0-.316,0q-4.47,2.472-8.943,4.934a.278.278,0,0,0-.168.283q.006,6.491,0,12.982v.2h1v-11.374a2,2,0,0,1,.009-.252.3.3,0,0,1,.277-.279,1.449,1.449,0,0,1,.213-.008h15.571a1.566,1.566,0,0,1,.194.006.3.3,0,0,1,.291.286,2.028,2.028,0,0,1,.008.252v11.371Zm-1.67-11.24H-294.7v.638h15.208Zm-15.215,1.959h15.214v-.634h-15.214Z" transform="translate(297.04 760.07)" fill="#4a4a4a"/>
    <path id="Path_15998" data-name="Path 15998" d="M-158.808-573.522v-3.5c0-.381.1-.48.484-.48h3.668c.381,0,.479.1.479.485v7.645c0,.387-.1.484-.477.484H-162.3c-.381,0-.488-.1-.488-.479v-3.687c0-.364.107-.469.477-.469h3.5Zm-.645.674a.4.4,0,0,0-.014.062v.775c0,.366-.11.478-.471.479h-1.048c-.364,0-.471-.109-.473-.476v-.832h-.649v3.286h3.276v-3.293Zm1.327.01v3.28h3.279v-3.276h-.652v.886c0,.29-.123.411-.415.414q-.572.006-1.145,0c-.3,0-.421-.123-.422-.425v-.879Zm0-3.994v3.28h3.275v-3.274h-.644v.94a.324.324,0,0,1-.335.37q-.659.012-1.319,0a.311.311,0,0,1-.326-.334c-.007-.22,0-.44,0-.659v-.319Zm1.962.009h-.643v.633h.643Zm-.648,4.612h.643v-.627h-.643Zm-3.972,0h.636v-.633h-.636Z" transform="translate(171.07 588.76)" fill="#4a4a4a"/>
    <path id="Path_15999" data-name="Path 15999" d="M-166.076-682.929h-1.512c-.343,0-.451-.111-.451-.454v-1.144c0-.261.115-.389.375-.39q1.61-.008,3.219,0c.258,0,.37.129.373.391v1.183c0,.29-.119.41-.414.413C-165.015-682.926-165.546-682.929-166.076-682.929Zm1.333-1.312h-2.625v.638h2.625Z" transform="translate(175.996 689.555)" fill="#4a4a4a"/>
  </g>
</svg>
