<svg id="Tenant_Details" data-name="Tenant Details" xmlns="http://www.w3.org/2000/svg" width="25" height="25" viewBox="0 0 29.311 29.248">
  <path id="Path_15970" data-name="Path 15970" d="M37.378,38h.458a8.651,8.651,0,0,1,.777.463q3.061,2.275,6.111,4.563c.057.043.121.076.229.145V40.252a.725.725,0,0,1,.825-.823h2.488c.712,0,.935.224.935.941,0,1.893.005,3.787-.006,5.68a.577.577,0,0,0,.278.534c.483.34.936.722,1.425,1.052a2.841,2.841,0,0,1,1.365,1.844v.514c-.021.072-.043.144-.063.217a2.149,2.149,0,0,1-1.735,1.694,6.217,6.217,0,0,1-1.263-.014V64.922c0,.153,0,.305-.011.458a1.964,1.964,0,0,1-1.978,1.864q-9.6.008-19.2-.006a2.037,2.037,0,0,1-.857-.2,1.967,1.967,0,0,1-1.14-1.945q.007-6.454,0-12.91v-.373l-.245.067a2.128,2.128,0,0,1-2.431-.94A5.913,5.913,0,0,1,22.95,50v-.514a2.956,2.956,0,0,1,1.34-1.827q6.079-4.516,12.128-9.058C36.72,38.375,37.057,38.2,37.378,38Zm.2,28.334h9.444a1.1,1.1,0,0,0,1.26-1.261q0-6.812,0-13.624a.472.472,0,0,0-.208-.428Q43,47.215,37.933,43.39a.46.46,0,0,0-.653,0q-5.064,3.824-10.144,7.632a.471.471,0,0,0-.208.427q.007,6.813,0,13.624a1.1,1.1,0,0,0,1.26,1.261ZM50,51.108l.034-.069a1.29,1.29,0,0,0,1.258-.972,1.242,1.242,0,0,0-.546-1.39Q44.369,43.905,38,39.137c-.386-.288-.386-.288-.757-.01L30.1,44.469q-2.819,2.106-5.635,4.215A1.236,1.236,0,0,0,23.9,49.94a1.272,1.272,0,0,0,2.077.816q3.147-2.356,6.286-4.722l4.5-3.385a1.227,1.227,0,0,1,1.691,0c.161.12.321.24.48.361q5.13,3.857,10.262,7.708A4.824,4.824,0,0,0,50,51.108Zm-4.13-10.755v.337c0,.847.031,1.7-.012,2.541a1.043,1.043,0,0,0,.521,1.051c.642.421,1.239.908,1.889,1.394V40.353Z" transform="translate(-22.95 -38)" fill="#328128"/>
  <path id="Path_15971" data-name="Path 15971" d="M197.321,309.9h-.2l-.025-.005a1.6,1.6,0,0,1-.739-.229,1.672,1.672,0,0,1-.8-1.162c-.011-.063-.018-.128-.026-.192v-.2a.259.259,0,0,1,.006-.035c.011-.076.017-.147.032-.219a1.691,1.691,0,1,1,2.924,1.468,1.661,1.661,0,0,1-.978.55Zm-.363-1.413-.185-.17c-.094-.085-.185-.173-.282-.254a.162.162,0,0,0-.258.087.176.176,0,0,0,.061.181l.547.5a.169.169,0,0,0,.259-.007l1.051-1.043a.331.331,0,0,0,.027-.029.169.169,0,0,0-.021-.237.151.151,0,0,0-.025-.018.172.172,0,0,0-.218.04l-.928.928-.027.026Z" transform="translate(-182.359 -286.029)" fill="#328128"/>
  <path id="Path_15972" data-name="Path 15972" d="M141.978,199.827c.044.022.082.043.122.06a6.319,6.319,0,0,1,3.84,5.037,11.357,11.357,0,0,1,.063,1.565.608.608,0,0,1-.545.588,1.289,1.289,0,0,1-.2.011H133.886a.656.656,0,0,1-.736-.572,6.966,6.966,0,0,1,.5-3.217,6.415,6.415,0,0,1,3.406-3.416c.032-.014.065-.026.1-.041.008,0,.013-.015.026-.031a3.819,3.819,0,0,1-1.45-3.253,3.74,3.74,0,0,1,1.258-2.638,3.87,3.87,0,1,1,4.994,5.907Zm2.758,5.968a5.022,5.022,0,0,0-2.566-4.426,4.916,4.916,0,0,0-5.665.312,4.971,4.971,0,0,0-2.085,4.112Zm-2.593-9.012a2.568,2.568,0,1,0-.748,1.829A2.571,2.571,0,0,0,142.143,196.783Z" transform="translate(-124.726 -181.096)" fill="#328128"/>
</svg>
