<svg xmlns="http://www.w3.org/2000/svg" width="293" height="293" viewBox="0 0 293 293">
  <g id="user-profile-svgrepo-com_2_" data-name="user-profile-svgrepo-com (2)" opacity="0.19">
    <g id="Group_7054" data-name="Group 7054">
      <path id="Path_19696" data-name="Path 19696" d="M146.5,0C65.717,0,0,65.717,0,146.5S65.717,293,146.5,293c1.477,0,2.918-.183,4.4-.22l.513.1a6.632,6.632,0,0,0,1.2.122,5.959,5.959,0,0,0,1.673-.232l.684-.2C231.8,288.141,293,224.426,293,146.5,293,65.717,227.283,0,146.5,0Zm87.07,248.549a5.987,5.987,0,0,0-3.748-4.065L197.69,233.789c-11.219-4.676-16.445-22.634-17.665-29.837,8.314-7.728,15.993-19.24,15.993-29.642a16.35,16.35,0,0,1,.806-4.932,6.1,6.1,0,0,0,4.187-3.65c.6-1.5,5.86-14.918,5.86-23.965a5.977,5.977,0,0,0-.183-1.477,14.326,14.326,0,0,0-5.249-8.082V103.783c0-17.568-5.347-24.93-11.012-29.19-1.27-8.741-10.633-25.747-43.925-25.747-34.037,0-54.938,32-54.938,54.938V132.2a14.326,14.326,0,0,0-5.249,8.082,6.126,6.126,0,0,0-.183,1.477c0,9.046,5.262,22.463,5.86,23.965a5,5,0,0,0,3.6,3.455c.391.232,1.392,1.6,1.392,5.127,0,10.4,7.679,21.914,15.993,29.642-1.209,7.191-6.385,25.137-17.25,29.678l-32.56,10.853a6.052,6.052,0,0,0-3.8,4.029A133.951,133.951,0,0,1,12.184,146.5c0-74.044,60.248-134.292,134.292-134.292S280.767,72.456,280.767,146.5A133.861,133.861,0,0,1,233.57,248.549Z"/>
    </g>
  </g>
</svg>
