<svg id="Layer_1" data-name="Layer 1" xmlns="http://www.w3.org/2000/svg" viewBox="0 0 255.46 255.42"><path d="M1072.49-319c-10.43-10.39-20.21-20.12-30-29.87q-31.95-31.92-63.9-63.84c-6-5.93-8.4-12.76-5.88-20.84A19,19,0,0,1,1002-443.2a44,44,0,0,1,5.16,4.69q44,43.9,87.86,87.87c1.29,1.29,2.33,2.82,3.72,4.52,1.85-1.72,3.17-2.87,4.41-4.11q45-45,90-90c5.42-5.43,11.61-8.17,19.37-6.3a19.06,19.06,0,0,1,10.8,30.06,49.74,49.74,0,0,1-4.75,5.11q-43.9,44-87.88,87.85a47.15,47.15,0,0,1-4.63,3.57c1.93,2.05,3.11,3.37,4.36,4.62q44.63,44.64,89.3,89.24c5.78,5.75,8.59,12.28,6.45,20.28-3.85,14.37-21.23,18.83-32.24,8.24-8.63-8.3-17-16.91-25.44-25.38q-32.81-32.82-65.6-65.66a30.26,30.26,0,0,1-2.68-3.62l-2.07-.74c-.92,1.6-1.54,3.49-2.79,4.75q-44.55,44.72-89.2,89.35c-6,6.06-12.86,8.83-21.2,6.13a19,19,0,0,1-9-30.06,47.11,47.11,0,0,1,3.76-4q44.1-44.11,88.22-88.21C1069.23-316.27,1070.67-317.41,1072.49-319Z" transform="translate(-971.72 447.1)"/></svg>